<svg width="24" height="24" viewBox="0 0 24 24" fill="none" xmlns="http://www.w3.org/2000/svg">
<path d="M21.5 24V0H5C4.58594 0 4.19922 0.078125 3.83984 0.234375C3.48047 0.390625 3.16016 0.605469 2.87891 0.878906C2.59766 1.15234 2.38281 1.46875 2.23438 1.82812C2.08594 2.1875 2.00781 2.57812 2 3V21C2 21.3828 2.08203 21.7539 2.24609 22.1133C2.41016 22.4727 2.63281 22.793 2.91406 23.0742C3.19531 23.3555 3.51562 23.5781 3.875 23.7422C4.23438 23.9062 4.60938 23.9922 5 24H21.5ZM20 4.5H5C4.78906 4.5 4.59375 4.46094 4.41406 4.38281C4.23438 4.30469 4.07812 4.19922 3.94531 4.06641C3.8125 3.93359 3.70312 3.77344 3.61719 3.58594C3.53125 3.39844 3.49219 3.20312 3.5 3C3.5 2.78906 3.53906 2.59375 3.61719 2.41406C3.69531 2.23438 3.80078 2.07812 3.93359 1.94531C4.06641 1.8125 4.22656 1.70312 4.41406 1.61719C4.60156 1.53125 4.79688 1.49219 5 1.5H20V4.5ZM3.5 5.60156C3.96875 5.86719 4.46875 6 5 6H20V22.5H5C4.82031 22.5 4.64062 22.457 4.46094 22.3711C4.28125 22.2852 4.12109 22.168 3.98047 22.0195C3.83984 21.8711 3.72656 21.7109 3.64062 21.5391C3.55469 21.3672 3.50781 21.1875 3.5 21V5.60156ZM6.5 19.5H17V15H6.5V19.5ZM8 18.5H15.5V18H8V18.5Z" fill="white"/>
</svg>
